<?xml version="1.0" standalone="no"?>
<!DOCTYPE svg PUBLIC "-//W3C//DTD SVG 20010904//EN"
 "http://www.w3.org/TR/2001/REC-SVG-20010904/DTD/svg10.dtd">
<svg version="1.0" xmlns="http://www.w3.org/2000/svg"
 width="192.000000pt" height="192.000000pt" viewBox="0 0 192.000000 192.000000"
 preserveAspectRatio="xMidYMid meet">

<g transform="translate(0.000000,192.000000) scale(0.100000,-0.100000)"
fill="#000000" stroke="none">
<path d="M789 1904 c-192 -34 -361 -124 -505 -268 -105 -105 -178 -218 -224
-343 -130 -359 -45 -741 224 -1008 134 -134 280 -216 462 -262 95 -24 333 -24
428 0 185 46 324 125 461 262 136 136 206 257 257 445 19 71 23 110 22 230 0
160 -12 227 -65 359 -70 177 -225 360 -388 459 -199 121 -445 168 -672 126z
m399 -34 c310 -76 570 -321 666 -626 163 -525 -152 -1075 -687 -1199 -493
-114 -995 197 -1119 692 -31 124 -31 322 0 446 43 173 130 323 259 448 149
145 319 228 538 263 64 10 262 -3 343 -24z"/>
<path d="M842 1828 c3 -39 5 -43 28 -40 69 10 67 82 -3 82 -27 0 -28 -2 -25
-42z m53 12 c8 -13 -14 -42 -26 -34 -5 3 -9 14 -9 25 0 20 24 26 35 9z"/>
<path d="M960 1830 c0 -39 1 -40 33 -40 29 1 30 2 14 14 -14 11 -15 15 -5 20
11 5 11 7 0 12 -10 5 -9 9 5 20 16 12 15 13 -14 14 -32 0 -33 -1 -33 -40z"/>
<path d="M1121 1822 c-13 -43 -8 -52 28 -52 24 0 29 5 33 30 5 36 0 45 -29 52
-19 5 -24 1 -32 -30z"/>
<path d="M661 1821 c-14 -9 -7 -66 9 -76 12 -8 58 15 64 32 15 37 -35 68 -73
44z m49 -31 c0 -11 -7 -20 -15 -20 -8 0 -15 9 -15 20 0 11 7 20 15 20 8 0 15
-9 15 -20z"/>
<path d="M1232 1798 c-10 -27 -9 -35 5 -50 9 -10 24 -18 34 -18 24 0 55 58 40
73 -8 8 -14 1 -22 -22 -18 -51 -43 -26 -28 28 8 29 -17 20 -29 -11z"/>
<path d="M550 1735 c0 -44 12 -60 24 -30 3 8 17 15 31 15 32 0 32 13 -1 39
-42 33 -54 27 -54 -24z"/>
<path d="M810 1755 c-232 -50 -410 -172 -532 -365 -220 -347 -135 -816 191
-1064 83 -63 139 -92 243 -128 89 -31 99 -33 248 -33 149 0 159 2 250 33 270
93 458 295 531 567 29 111 29 288 0 399 -75 282 -302 509 -581 581 -89 23
-268 28 -350 10z m120 -35 c0 -18 -10 -39 -26 -55 -22 -22 -26 -33 -22 -68 7
-62 -21 -139 -55 -148 -14 -4 -28 -4 -31 -1 -14 13 -4 63 20 106 22 40 25 51
15 72 -13 29 -41 31 -64 6 -12 -13 -26 -17 -47 -14 -27 4 -32 0 -43 -27 -7
-20 -16 -30 -26 -26 -20 8 -61 -22 -61 -45 0 -14 -7 -20 -22 -20 -30 0 -68
-38 -68 -69 0 -18 -9 -31 -31 -43 -25 -15 -30 -23 -27 -50 2 -25 -3 -38 -20
-51 -23 -20 -31 -74 -12 -93 7 -7 6 -21 -4 -45 -12 -29 -12 -39 -1 -67 8 -17
19 -32 25 -32 5 0 10 -21 10 -47 0 -27 5 -120 12 -209 l12 -160 -26 -47 c-15
-26 -24 -47 -22 -47 16 0 65 34 87 60 39 46 48 89 56 275 4 94 11 179 16 190
7 16 6 18 -6 7 -9 -9 -15 -61 -20 -190 -9 -209 -24 -267 -84 -306 l-23 -15 16
40 c14 35 14 60 2 229 -10 139 -10 196 -2 212 l11 23 0 -22 c1 -34 17 -28 26
10 4 17 9 26 12 19 3 -9 12 -3 24 17 10 17 24 31 30 31 6 0 -1 -14 -15 -31
-14 -17 -26 -38 -27 -47 0 -14 -2 -13 -8 3 -14 36 -21 -55 -11 -150 13 -117
12 -207 0 -242 -10 -27 -9 -27 6 -8 14 17 15 41 10 173 -4 91 -3 152 2 152 6
0 13 20 16 44 4 24 15 51 26 61 18 16 20 16 54 -21 20 -22 36 -49 36 -62 0
-13 4 -31 10 -41 8 -15 6 -17 -14 -14 -26 5 -55 -22 -39 -38 10 -10 4 -65 -12
-101 -5 -14 -2 -18 14 -18 12 0 21 -3 21 -7 0 -5 -29 -98 -65 -208 -59 -183
-69 -224 -46 -199 4 5 46 115 92 244 54 152 85 226 87 210 2 -14 8 -29 13 -35
5 -5 9 -26 9 -46 0 -30 -6 -42 -35 -66 -19 -15 -37 -40 -41 -55 -7 -32 11 -39
19 -8 3 11 10 20 16 20 14 0 14 -16 1 -40 -8 -15 -4 -23 21 -44 16 -14 37 -29
45 -34 12 -7 6 -26 -35 -113 -27 -57 -45 -108 -41 -112 4 -5 60 27 124 72 63
45 119 81 124 81 5 0 49 -26 98 -58 49 -33 107 -69 128 -82 45 -27 45 -34 1
90 -15 41 -30 100 -32 131 l-5 56 66 46 c37 26 69 47 71 47 2 0 27 -70 55
-155 28 -85 56 -155 61 -155 13 0 13 1 -36 164 -25 82 -45 154 -45 161 0 6 85
71 189 143 105 73 193 136 196 142 8 13 -387 602 -397 592 -4 -4 -28 -49 -52
-100 l-45 -92 -55 27 c-51 25 -55 29 -70 82 -10 37 -14 74 -10 108 6 46 4 54
-20 78 -17 17 -26 37 -26 56 l0 31 53 -7 c331 -42 595 -271 678 -590 29 -110
29 -279 0 -388 -46 -174 -164 -342 -314 -447 -303 -213 -722 -180 -990 78
-246 236 -310 612 -157 917 113 225 327 382 578 425 87 14 92 13 92 -20z m64
-76 c31 -31 10 -94 -31 -94 -24 0 -53 30 -53 53 0 26 28 57 51 57 10 0 25 -7
33 -16z m-170 -20 c3 -8 -1 -32 -10 -52 -11 -28 -17 -33 -24 -22 -13 21 -18
11 -30 -50 -12 -61 -30 -90 -30 -48 0 15 -3 35 -6 45 -4 13 -3 14 4 5 6 -10
11 2 16 40 4 29 14 63 22 76 17 25 49 29 58 6z m-86 -38 c3 -11 -4 -26 -14
-33 -18 -13 -22 -48 -14 -112 8 -55 -17 -50 -43 8 -25 57 -32 62 -41 27 -4
-16 1 -37 15 -61 22 -37 19 -60 -5 -34 -34 37 -47 136 -21 163 23 23 44 8 51
-35 4 -21 13 -47 21 -56 14 -17 14 -17 7 2 -14 37 -16 125 -3 141 16 20 43 14
47 -10z m722 -326 c99 -148 180 -274 180 -279 0 -8 -496 -359 -522 -369 -13
-6 -9 45 6 81 11 28 18 33 50 34 42 1 76 26 76 57 0 16 34 44 131 110 71 50
134 95 140 102 7 9 -20 59 -102 181 -61 92 -114 170 -116 173 -3 3 -11 -4 -19
-14 -13 -19 -15 -19 -54 -1 -22 10 -40 19 -40 21 0 8 80 174 84 174 3 0 87
-121 186 -270z m-483 225 l11 -35 -34 0 c-37 0 -39 5 -24 44 13 36 35 32 47
-9z m-382 -37 c12 -36 12 -37 -7 -27 -24 13 -29 9 -22 -17 3 -10 18 -27 35
-36 16 -9 29 -24 29 -33 0 -22 -15 -18 -33 9 -9 12 -32 31 -51 40 -42 20 -48
54 -15 87 28 28 49 21 64 -23z m410 -22 c49 -13 140 -55 120 -55 -5 0 -27 4
-49 8 -21 5 -35 6 -30 2 5 -4 34 -13 64 -21 66 -16 160 -50 160 -59 -1 -9 -74
-61 -170 -121 -47 -29 -94 -61 -106 -71 -12 -12 -28 -17 -37 -13 -10 3 -17 1
-17 -5 0 -6 -7 -11 -15 -11 -9 0 -15 -9 -15 -23 0 -13 -10 -32 -21 -43 -29
-26 -40 -58 -40 -123 0 -78 -15 -118 -49 -136 -39 -20 -74 -20 -66 1 3 9 6 30
6 49 0 25 5 34 21 38 18 5 21 11 16 35 -4 22 -1 33 16 48 l22 19 -30 6 c-16 4
-25 7 -19 8 15 1 54 40 54 53 0 6 -11 8 -30 4 -19 -3 -29 -2 -25 4 3 6 15 10
26 10 10 0 33 13 50 30 17 16 40 32 50 35 27 9 23 25 -6 25 -20 0 -26 7 -36
42 l-11 43 -19 -24 c-25 -31 -24 -66 3 -91 17 -15 18 -20 6 -20 -8 0 -23 18
-33 40 -10 22 -22 40 -26 40 -10 0 -23 -85 -15 -105 9 -24 -8 -18 -19 7 -18
39 -34 32 -37 -16 l-3 -46 -42 38 c-67 62 -81 167 -34 260 26 51 101 117 154
136 53 18 167 20 232 2z m-480 -46 c28 -10 25 -32 -3 -29 -10 1 -21 1 -25 0
-13 -2 26 -35 66 -55 20 -11 37 -23 37 -28 0 -13 -12 -10 -45 12 -16 11 -45
20 -62 20 -27 0 -34 5 -39 27 -6 20 -2 31 16 45 26 21 22 21 55 8z m746 -121
c-24 -22 -90 -68 -145 -102 -79 -49 -102 -68 -104 -87 -2 -14 -5 -32 -8 -40
-4 -13 -6 -13 -14 0 -29 46 -8 71 125 153 50 31 106 69 125 86 53 46 72 37 21
-10z m-771 16 c-7 -8 -19 -15 -26 -15 -8 0 -14 -4 -14 -10 0 -5 9 -10 20 -10
32 0 23 -25 -15 -39 -43 -15 -55 -9 -55 29 0 38 24 60 67 60 30 0 34 -2 23
-15z m914 -126 c48 -72 85 -136 83 -142 -7 -17 -247 -180 -247 -167 0 5 4 10
9 10 5 0 15 16 21 36 7 22 21 39 36 44 30 12 30 22 0 97 -43 105 -51 149 -33
186 9 18 18 40 21 50 3 9 9 17 14 17 5 0 48 -59 96 -131z m-850 75 c28 -11 17
-24 -18 -24 -23 0 -44 -9 -63 -26 -26 -23 -26 -25 -5 -19 12 4 22 2 22 -4 0
-5 12 -4 28 5 32 16 52 18 52 4 0 -12 -52 -38 -66 -33 -7 2 -26 -13 -42 -33
-26 -32 -33 -35 -46 -24 -9 7 -16 27 -16 45 0 41 41 79 96 90 28 5 34 9 23 16
-12 7 -11 9 3 9 9 0 23 -3 32 -6z m728 -157 c20 -62 33 -115 29 -120 -4 -4
-22 -1 -39 6 -18 7 -29 16 -25 20 3 4 1 7 -5 7 -7 0 -12 -7 -12 -15 0 -8 9
-15 19 -15 28 0 33 -13 15 -38 -16 -23 -54 -30 -54 -11 0 5 -4 7 -10 4 -24
-15 -9 -31 26 -27 26 3 35 1 30 -7 -4 -6 -12 -9 -17 -6 -5 4 -9 -15 -9 -42 0
-74 -14 -87 -90 -81 -49 3 -59 2 -47 -7 14 -10 15 -18 5 -51 -22 -82 -2 -235
47 -357 4 -9 3 -17 -3 -17 -5 0 -100 60 -210 134 -110 74 -209 137 -221 141
-29 9 -26 33 6 46 33 12 62 4 45 -13 -7 -7 -12 -16 -12 -22 0 -6 5 -5 12 2 7
7 22 12 35 12 26 0 47 32 38 60 -8 26 7 26 30 0 10 -11 18 -34 17 -52 l-1 -33
15 28 c8 15 19 27 24 27 6 0 10 29 10 65 0 36 3 65 7 65 15 0 43 -35 43 -54 0
-14 3 -17 10 -10 8 8 8 19 0 38 -5 15 -10 42 -10 60 0 18 -5 47 -11 65 -14 41
-7 49 21 21 11 -11 26 -18 32 -14 7 4 5 10 -6 16 -27 15 -21 75 11 104 23 21
25 28 15 44 -15 24 -11 27 95 56 47 13 89 26 92 30 3 4 -5 4 -19 0 -63 -17
-80 -18 -80 -7 0 6 14 14 31 18 17 3 36 14 42 24 25 40 41 21 79 -94z m-342
-72 c11 -13 8 -14 -17 -9 -24 5 -31 2 -41 -21 -7 -14 -12 -53 -12 -86 0 -102
-36 -156 -109 -166 -52 -7 -55 12 -3 21 63 10 83 40 91 143 4 48 13 98 20 111
14 26 52 30 71 7z m-296 -71 c25 -10 19 -34 -9 -34 -18 0 -25 5 -25 20 0 21 8
24 34 14z m81 -54 c-5 -8 -11 -8 -17 -2 -6 6 -7 16 -3 22 5 8 11 8 17 2 6 -6
7 -16 3 -22z m35 0 c0 -11 -6 -20 -14 -20 -9 0 -12 7 -9 20 3 11 9 20 14 20 5
0 9 -9 9 -20z m-116 -12 c-16 -52 -24 -68 -35 -68 -6 0 -8 7 -5 16 3 9 6 29 6
45 0 23 4 29 21 29 17 0 19 -4 13 -22z m76 -39 c0 -17 -4 -28 -10 -24 -5 3
-10 17 -10 31 0 13 5 24 10 24 6 0 10 -14 10 -31z m133 -352 l31 -13 -95 -66
c-52 -36 -95 -65 -97 -63 -2 2 15 40 38 85 45 90 44 89 123 57z"/>
<path d="M969 1271 c-16 -16 -29 -39 -29 -50 0 -12 -4 -21 -10 -21 -5 0 -10 9
-10 20 0 30 -18 24 -40 -12 -36 -59 -21 -81 48 -70 34 5 42 16 17 26 -33 12
-14 26 26 20 40 -7 43 -5 80 36 45 50 51 75 17 65 -13 -4 -34 -17 -47 -29
l-23 -21 7 33 c8 40 2 40 -36 3z"/>
<path d="M1178 1088 c-57 -24 -64 -48 -14 -48 19 0 41 -3 50 -6 12 -5 16 0 16
20 0 14 5 26 10 26 6 0 10 5 10 11 0 5 -4 8 -9 5 -5 -4 -11 -2 -13 3 -1 5 -24
0 -50 -11z m42 -28 c0 -5 -12 -10 -26 -10 -14 0 -23 4 -19 10 3 6 15 10 26 10
10 0 19 -4 19 -10z"/>
<path d="M1346 1739 c-17 -29 -17 -31 1 -44 31 -24 47 -14 21 14 -11 11 -10
13 5 8 15 -6 17 -3 12 13 -5 15 -3 18 9 14 9 -3 16 -2 16 4 0 9 -22 22 -39 22
-4 0 -15 -14 -25 -31z"/>
<path d="M435 1706 c-18 -13 -18 -16 -5 -41 19 -36 36 -41 60 -20 48 44 -3 99
-55 61z m49 -15 c4 -5 3 -16 0 -25 -5 -13 -9 -14 -20 -5 -8 6 -14 18 -14 25 0
16 26 19 34 5z"/>
<path d="M1431 1692 c-23 -33 -17 -50 11 -25 17 15 18 15 18 -15 0 -44 19 -51
47 -16 12 16 23 32 23 37 0 14 -28 7 -36 -10 -6 -14 -9 -11 -13 16 -8 45 -24
49 -50 13z"/>
<path d="M366 1651 c-8 -12 29 -61 46 -61 14 0 9 14 -15 44 -17 21 -26 26 -31
17z"/>
<path d="M1541 1606 c-18 -22 -6 -60 23 -74 21 -9 29 -8 48 8 22 18 22 20 8
47 -18 32 -60 42 -79 19z m57 -34 c3 -16 -2 -22 -16 -22 -21 0 -36 25 -26 41
10 17 39 5 42 -19z"/>
<path d="M297 1593 c-10 -10 -8 -41 3 -48 5 -3 19 -1 30 5 22 12 27 1 8 -18
-6 -6 -9 -14 -6 -17 10 -10 39 27 36 44 -3 11 -13 15 -32 14 -23 -2 -26 0 -16
13 10 11 9 14 -2 14 -8 0 -18 -3 -21 -7z"/>
<path d="M227 1502 c-22 -24 -21 -30 6 -53 26 -22 51 -25 44 -5 -4 9 3 17 16
21 17 5 19 8 7 12 -8 4 -21 14 -28 25 -16 23 -25 23 -45 0z"/>
<path d="M1657 1513 c-4 -3 -7 -18 -7 -32 -1 -24 -2 -24 -14 -9 -17 23 -29 11
-15 -14 15 -28 55 -20 52 10 -3 23 12 31 20 10 4 -9 6 -8 6 3 2 25 -27 47 -42
32z"/>
<path d="M172 1418 c-20 -20 -14 -37 20 -54 30 -15 32 -15 45 2 16 21 17 34 3
34 -5 0 -10 -4 -10 -10 0 -5 -4 -10 -10 -10 -5 0 -7 7 -3 16 5 13 2 15 -15 10
-17 -6 -21 -4 -16 8 7 19 2 20 -14 4z"/>
<path d="M1700 1341 c0 -5 5 -11 12 -13 6 -2 12 -15 14 -29 1 -13 3 -26 3 -28
1 -3 15 8 31 24 43 41 39 55 -15 55 -25 0 -45 -4 -45 -9z"/>
<path d="M130 1328 c0 -6 7 -20 17 -30 15 -17 15 -18 -10 -18 -14 0 -29 -4
-32 -10 -4 -6 12 -10 39 -10 52 0 55 8 24 50 -23 31 -38 38 -38 18z"/>
<path d="M1800 1253 c-8 -3 -26 -10 -39 -15 -17 -6 -21 -12 -14 -19 13 -13 87
16 78 31 -3 5 -7 10 -8 9 -1 0 -9 -3 -17 -6z"/>
<path d="M86 1212 c-13 -12 -4 -20 34 -30 30 -7 40 -7 40 2 0 13 -65 38 -74
28z"/>
<path d="M1802 1180 c-41 -9 -50 -18 -28 -26 13 -5 14 -9 5 -21 -9 -10 -9 -17
-1 -25 9 -9 12 -9 12 1 0 7 8 11 18 10 35 -3 42 2 42 30 0 36 -6 40 -48 31z"/>
<path d="M70 1130 c0 -5 7 -10 15 -10 21 0 19 -13 -5 -28 -25 -15 -26 -42 -2
-42 9 0 27 -3 40 -6 14 -4 22 -2 22 6 0 6 -10 14 -22 18 -21 5 -21 6 7 27 15
13 24 28 21 34 -9 14 -76 15 -76 1z"/>
<path d="M1791 1061 c-12 -8 -12 -14 -4 -33 9 -18 12 -19 12 -5 1 18 21 25 21
7 0 -5 5 -10 11 -10 5 0 7 5 4 10 -3 6 -1 10 4 10 6 0 11 -4 11 -10 0 -5 5
-10 11 -10 6 0 9 10 7 23 -2 16 -10 23 -33 25 -16 1 -36 -2 -44 -7z"/>
<path d="M50 986 c0 -9 12 -16 33 -18 17 -2 32 -7 32 -13 0 -5 -15 -11 -32
-13 -44 -4 -42 -22 2 -22 40 0 57 23 44 58 -6 17 -16 22 -44 22 -24 0 -35 -5
-35 -14z"/>
<path d="M1787 958 c-14 -43 31 -66 51 -25 8 17 11 18 11 5 1 -28 21 -31 21
-3 0 31 -28 45 -45 22 -15 -21 -26 -22 -19 -2 4 8 2 15 -4 15 -6 0 -12 -6 -15
-12z"/>
<path d="M1826 785 c-3 -8 -1 -15 4 -15 6 0 10 7 10 15 0 8 -2 15 -4 15 -2 0
-6 -7 -10 -15z"/>
<path d="M80 780 c0 -5 5 -10 11 -10 5 0 7 5 4 10 -3 6 -8 10 -11 10 -2 0 -4
-4 -4 -10z"/>
<path d="M145 625 c-28 -12 -33 -30 -10 -30 6 0 16 -4 23 -8 8 -6 12 -2 12 9
0 14 3 15 12 6 20 -20 28 -13 16 13 -13 28 -12 28 -53 10z"/>
<path d="M1720 606 c0 -16 38 -66 51 -66 5 0 9 11 9 25 0 14 7 28 15 31 30 12
14 24 -30 24 -31 0 -45 -4 -45 -14z"/>
<path d="M150 530 c0 -5 7 -13 15 -18 9 -4 17 -19 20 -31 2 -13 6 -25 8 -27 7
-7 56 69 51 78 -7 11 -94 10 -94 -2z"/>
<path d="M1680 531 c0 -12 40 -41 57 -41 23 0 14 19 -17 35 -34 18 -40 18 -40
6z"/>
<path d="M1652 483 c-7 -3 -17 -14 -23 -24 -8 -16 -6 -24 13 -39 27 -23 52
-26 45 -6 -4 9 3 17 16 21 17 5 18 8 7 12 -8 3 -21 14 -30 24 -8 9 -21 15 -28
12z"/>
<path d="M242 448 c-16 -16 -15 -53 1 -67 19 -15 28 -3 14 20 -16 27 10 45 34
23 22 -20 33 -5 12 18 -19 21 -44 23 -61 6z"/>
<path d="M1576 399 c-14 -20 -13 -23 15 -46 24 -20 32 -23 44 -13 20 17 19 31
-2 23 -13 -5 -15 -2 -10 11 6 14 3 16 -15 10 -20 -6 -21 -5 -10 9 8 9 9 18 3
21 -5 4 -16 -3 -25 -15z"/>
<path d="M311 374 c-25 -32 -26 -38 -5 -58 21 -22 47 -20 69 4 24 26 13 37
-17 16 -12 -9 -26 -16 -30 -16 -14 0 -9 23 9 42 11 13 13 22 6 29 -7 7 -17 2
-32 -17z"/>
<path d="M1520 342 c0 -14 57 -64 63 -55 6 10 -38 63 -53 63 -5 0 -10 -4 -10
-8z"/>
<path d="M396 288 c-24 -30 -24 -34 -9 -45 21 -16 41 -17 25 -1 -8 8 -6 18 9
39 28 40 6 46 -25 7z"/>
<path d="M1480 304 c0 -3 5 -14 10 -24 9 -17 7 -18 -24 -13 -44 7 -50 -6 -21
-43 25 -31 43 -29 26 4 -10 19 -8 20 29 15 46 -6 48 -2 19 38 -18 26 -39 38
-39 23z"/>
<path d="M475 260 c4 -6 0 -22 -9 -35 -19 -29 -20 -35 -3 -35 7 0 18 9 25 20
7 11 19 20 27 20 20 0 19 10 -2 26 -21 16 -47 18 -38 4z"/>
<path d="M1363 229 c-9 -9 -8 -20 4 -43 20 -41 18 -39 42 -26 24 12 29 32 6
24 -11 -5 -13 -2 -9 10 4 11 1 16 -11 16 -14 0 -15 3 -5 15 10 12 10 15 -2 15
-8 0 -19 -5 -25 -11z"/>
<path d="M538 185 c-25 -21 -23 -46 2 -30 5 3 17 -3 27 -15 26 -30 33 -25 33
25 0 53 -18 59 -62 20z"/>
<path d="M1256 169 c-17 -25 -12 -45 16 -60 25 -13 68 13 68 41 0 22 -8 25
-30 10 -12 -8 -13 -12 -2 -19 11 -7 11 -9 0 -13 -19 -7 -38 2 -38 18 0 8 11
19 25 24 32 12 32 20 1 20 -14 0 -31 -9 -40 -21z"/>
<path d="M640 144 c-10 -30 -10 -38 1 -45 34 -21 79 -3 79 32 0 19 -16 34 -47
43 -18 6 -23 1 -33 -30z m53 -20 c-6 -15 -33 -20 -33 -5 0 5 3 17 6 25 5 13
10 14 20 6 7 -7 10 -18 7 -26z"/>
<path d="M1190 135 c0 -24 0 -24 -29 -7 -16 9 -33 14 -36 10 -11 -11 7 -78 21
-78 11 0 13 7 8 27 -7 26 -7 26 17 10 13 -10 31 -17 40 -17 15 0 16 5 7 40
-12 44 -28 54 -28 15z"/>
<path d="M806 99 c-8 -40 -1 -49 34 -49 19 0 33 7 40 20 16 30 -4 60 -39 60
-24 0 -30 -5 -35 -31z m54 -9 c0 -11 -7 -20 -15 -20 -8 0 -15 9 -15 20 0 11 7
20 15 20 8 0 15 -9 15 -20z"/>
<path d="M1063 100 c4 -18 7 -36 7 -41 0 -5 5 -9 11 -9 15 0 6 73 -10 78 -11
4 -13 -3 -8 -28z"/>
<path d="M920 80 c0 -36 3 -40 25 -40 26 0 34 14 13 24 -10 5 -10 7 1 12 11 5
11 8 0 15 -12 8 -11 11 1 19 12 8 9 10 -12 10 -26 0 -28 -3 -28 -40z"/>
</g>
</svg>
